<?xml version="1.0" encoding="UTF-8" standalone="no"?>
<!-- Created with Inkscape (http://www.inkscape.org/) -->

<svg
   width="500mm"
   height="500mm"
   viewBox="0 0 500 500"
   version="1.1"
   id="svg839"
   inkscape:version="1.1.2 (0a00cf5339, 2022-02-04)"
   sodipodi:docname="header-img.svg"
   xmlns:inkscape="http://www.inkscape.org/namespaces/inkscape"
   xmlns:sodipodi="http://sodipodi.sourceforge.net/DTD/sodipodi-0.dtd"
   xmlns="http://www.w3.org/2000/svg"
   xmlns:svg="http://www.w3.org/2000/svg">
  <sodipodi:namedview
     id="namedview841"
     pagecolor="#505050"
     bordercolor="#eeeeee"
     borderopacity="1"
     inkscape:pageshadow="0"
     inkscape:pageopacity="0"
     inkscape:pagecheckerboard="0"
     inkscape:document-units="mm"
     showgrid="false"
     inkscape:zoom="0.46929649"
     inkscape:cx="597.70317"
     inkscape:cy="1151.7239"
     inkscape:window-width="2560"
     inkscape:window-height="1408"
     inkscape:window-x="1280"
     inkscape:window-y="32"
     inkscape:window-maximized="1"
     inkscape:current-layer="layer1" />
  <defs
     id="defs836" />
  <g
     inkscape:label="Layer 1"
     inkscape:groupmode="layer"
     id="layer1">
    <path
       style="fill:none;stroke:#ffffff;stroke-width:40;stroke-linecap:round;stroke-linejoin:round;stroke-miterlimit:4;stroke-dasharray:none;stroke-dashoffset:0;stroke-opacity:1"
       d="m 117.18454,72.857859 v 50.497991 c 0.82077,15.4622 1.7206,31.67944 10.80431,42.04876 5.24416,6.17962 12.07649,11.41694 19.07711,15.5421 13.4617,7.96646 27.71583,10.77441 41.5005,16.86304 18.58728,7.28544 24.55294,8.80221 36.8281,17.4823 5.99404,6.14932 12.95548,14.14966 14.471,18.20577 5.19584,13.90602 3.54262,24.60437 3.54262,39.17538 -0.99436,56.15517 -2.53919,116.83502 -3.50033,167.69953"
       id="path933"
       sodipodi:nodetypes="ccccccscc" />
    <path
       style="fill:none;stroke:#ffffff;stroke-width:40;stroke-linecap:round;stroke-linejoin:round;stroke-miterlimit:4;stroke-dasharray:none;stroke-dashoffset:0;stroke-opacity:0.687975"
       d="m 241.83499,352.12003 c 1.46466,-17.72689 3.52867,-28.88001 18.00831,-42.72242 12.93223,-12.0283 34.73707,-12.3003 51.70973,-13.83659 20.67963,-1.09327 36.38255,-2.4193 42.73474,-4.93721 10.83882,-3.90076 20.34525,-11.64751 27.82785,-18.90967 9.96089,-9.33058 18.02209,-19.83036 23.06795,-30.7594 7.65808,-16.22099 12.25261,-31.13327 15.03736,-52.86837 1.12307,-14.12027 0.44868,-31.06357 0.35285,-45.39878"
       id="path935"
       sodipodi:nodetypes="cccccccc" />
    <path
       style="fill:none;stroke:#ffffff;stroke-width:40;stroke-linecap:round;stroke-linejoin:round;stroke-miterlimit:4;stroke-dasharray:none;stroke-dashoffset:0;stroke-opacity:0.873318"
       d="m 243.63164,250.21288 c 1.01791,-54.92529 4.05327,-133.66101 4.03563,-183.79486"
       id="path937"
       sodipodi:nodetypes="cc" />
    <path
       style="fill:none;stroke:#ffffff;stroke-width:40;stroke-linecap:round;stroke-linejoin:round;stroke-miterlimit:4;stroke-dasharray:none;stroke-opacity:0.610941"
       d="m 239.90785,440.37273 c 0.14386,-10.48384 2.30069,-23.07251 -1.88299,-33.8074 -1.99008,-7.66053 -5.27919,-13.90494 -8.52766,-20.08367 -6.92274,-9.35558 -15.49832,-18.92302 -25.26443,-24.14974 -5.33729,-2.7763 -12.01338,-4.77205 -18.58792,-6.14823 -8.81565,-2.43107 -18.05382,-2.96031 -25.561,-3.99441 -10.71734,-1.27159 -21.39902,-2.90237 -28.70336,-6.37852 -8.69275,-4.14808 -18.03312,-12.69771 -22.01412,-18.93609 -7.26484,-10.82561 -9.842133,-22.18281 -9.848325,-33.71663 v -24.87285"
       id="path1510"
       sodipodi:nodetypes="cccccccccc" />
  </g>
</svg>
