<?xml version="1.0" encoding="UTF-8" standalone="no"?>
<!-- Created with Inkscape (http://www.inkscape.org/) -->

<svg
   width="500mm"
   height="500mm"
   viewBox="0 0 500 500"
   version="1.1"
   id="svg839"
   inkscape:version="1.1.2 (0a00cf5339, 2022-02-04)"
   sodipodi:docname="header-img.svg"
   xmlns:inkscape="http://www.inkscape.org/namespaces/inkscape"
   xmlns:sodipodi="http://sodipodi.sourceforge.net/DTD/sodipodi-0.dtd"
   xmlns="http://www.w3.org/2000/svg"
   xmlns:svg="http://www.w3.org/2000/svg">
  <sodipodi:namedview
     id="namedview841"
     pagecolor="#505050"
     bordercolor="#eeeeee"
     borderopacity="1"
     inkscape:pageshadow="0"
     inkscape:pageopacity="0"
     inkscape:pagecheckerboard="0"
     inkscape:document-units="mm"
     showgrid="false"
     inkscape:zoom="0.33184273"
     inkscape:cx="537.90541"
     inkscape:cy="827.19907"
     inkscape:window-width="2560"
     inkscape:window-height="1408"
     inkscape:window-x="1280"
     inkscape:window-y="32"
     inkscape:window-maximized="1"
     inkscape:current-layer="layer1" />
  <defs
     id="defs836" />
  <g
     inkscape:label="Layer 1"
     inkscape:groupmode="layer"
     id="layer1">
    <path
       style="fill:none;stroke:#ffffff;stroke-width:40;stroke-linecap:round;stroke-linejoin:round;stroke-opacity:1;stroke-miterlimit:4;stroke-dasharray:none;stroke-dashoffset:0"
       d="m 117.18454,72.857859 c 0,16.832665 0,33.665331 0,50.497991 0,5.27011 -0.55182,10.93946 0,16.15887 0.41016,3.87957 2.10974,7.21841 3.30022,10.78985 0.42854,1.28563 0.18723,2.77649 0.79731,3.98657 0.51897,1.02938 1.87455,1.44394 2.44548,2.44543 0.5513,0.96707 0.30265,2.24572 0.79731,3.24294 2.19612,4.42728 1.82223,1.89646 3.99047,4.78895 1.08519,1.44768 2.83692,5.00767 4.80511,6.40919 1.28098,0.91216 2.86818,1.38311 4.04809,2.4227 1.04273,0.91872 1.43333,2.4429 2.49376,3.34114 0.64129,0.54322 1.6574,0.38891 2.39194,0.79732 1.68478,0.93673 3.20782,2.1386 4.81173,3.2079 2.77516,1.22682 5.64748,2.25396 8.32548,3.68047 0.67157,0.35774 0.91463,1.31463 1.6141,1.61415 1.25501,0.53741 2.79804,0.18316 4.01733,0.79732 2.20388,1.11009 3.86731,3.11342 6.04625,4.2717 5.10772,2.71516 16.04004,3.95686 21.49734,6.4994 2.37978,1.10874 4.16464,3.21474 6.40422,4.58476 2.77066,1.6949 6.15303,2.09895 9.14655,3.35915 9.81468,4.13175 19.71475,8.4335 27.28216,16.00091 2.86906,2.86906 6.46036,3.91972 7.97588,7.97583 5.19584,13.90602 4.03291,28.37179 4.03291,42.9428 0,7.15069 0.47688,14.55825 0,21.67843 -0.17855,2.66575 -1.33219,6.55674 -1.71435,9.24957 -0.73271,5.163 -1.58688,15.53487 -1.80369,20.03178 -0.33764,7.00289 -0.31287,13.79848 -0.80861,20.79385 -0.47913,6.76103 0.82083,13.77955 -0.79731,20.25213 -0.67816,2.71264 0.68012,5.93585 0,8.64799 -0.0914,0.36457 -0.67846,0.44074 -0.79732,0.79729 -1.01564,3.04694 0.53951,2.13744 -1.57477,6.32857 -0.56821,1.12633 -0.66074,20.9364 0,22.92593 1.21592,3.66123 -0.12332,7.50885 0.78271,11.13296 0.94447,3.77788 0.57661,7.59878 1.59463,11.43042 0.24888,0.93673 1.38085,1.476 1.61838,2.4157 0.85773,3.39315 0,8.41092 0,12.01491"
       id="path933" />
    <path
       style="fill:none;stroke:#ffffff;stroke-width:40;stroke-linecap:round;stroke-linejoin:round;stroke-opacity:0.68797517;stroke-miterlimit:4;stroke-dasharray:none;stroke-dashoffset:0"
       d="m 239.36009,352.40192 c -0.29604,-11.71739 1.6314,-24.39648 8.04848,-34.51153 0.31836,-0.50181 1.17441,-0.37709 1.59463,-0.7973 2.94164,-2.94163 0.068,-2.17151 3.98658,-4.7839 1.35674,-0.90451 2.62983,-0.69014 3.98658,-1.59462 5.94727,-3.96486 12.58511,-5.58165 19.5056,-7.31176 2.20528,-0.55131 4.15623,-1.94847 6.38516,-2.39464 1.303,-0.26082 2.66594,0.14772 3.98656,0 4.23003,-0.47307 2.217,-1.13662 6.43557,-1.60411 1.84909,-0.2049 3.73517,0.23077 5.5812,0 4.80017,-0.60002 9.54801,-1.99298 14.35168,-2.39194 6.71656,-0.55785 13.58009,-0.0698 20.27296,-0.80711 15.05066,-1.65791 -1.2587,0.48326 8.83296,-2.39194 0.76678,-0.21847 1.61843,0.19338 2.39194,0 2.96047,-0.74012 6.67509,-2.03213 9.56778,-3.18926 7.26831,-2.90748 9.90282,-6.79935 15.66386,-11.41299 4.18939,-3.355 3.13539,-1.03659 5.60769,-4.00375 0.85166,-1.02214 1.45401,-2.25232 2.39466,-3.19321 0.94038,-0.94062 2.25147,-1.45394 3.1918,-2.39461 5.62848,-5.63056 9.30463,-13.08287 13.82863,-19.55103 2.2673,-3.24166 5.56086,-6.71166 7.19921,-10.39795 2.88568,-6.4928 5.73805,-13.22132 7.97782,-19.94062 0.16809,-0.50427 0,-1.06309 0,-1.59463 0.26578,-0.79732 0.45567,-1.62408 0.7973,-2.39195 0.73379,-1.64926 1.84896,-3.13186 2.42194,-4.84365 0.25307,-0.75608 -0.11332,-1.60272 0,-2.39195 0.5017,-3.49442 1.81824,-6.91402 2.40149,-10.41347 0.3075,-1.84514 -0.1851,-3.75036 0,-5.61177 -0.18481,-2.04055 1.35403,-3.67172 1.59462,-5.59649 0.42548,-3.4038 -0.48578,-7.00049 0,-10.39581 0.82902,-5.79448 2.0719,-11.97219 3.20699,-17.60488 1.00097,-4.96729 0,-11.08998 0,-16.19746"
       id="path935" />
    <path
       style="fill:none;stroke:#ffffff;stroke-width:40;stroke-linecap:round;stroke-linejoin:round;stroke-opacity:0.87331778;stroke-miterlimit:4;stroke-dasharray:none;stroke-dashoffset:0"
       d="m 238.88707,229.42795 c 2.58156,-9.73921 2.08752,-19.76689 3.18926,-29.6962 1.15296,-10.39091 3.32422,-20.86817 4.79363,-31.15404 0.52091,-3.64639 -0.52092,-7.51603 0,-11.16242 1.16483,-8.1538 0.79731,-16.46927 0.79731,-24.76364 0,-22.07788 0,-44.155755 0,-66.23363"
       id="path937" />
    <path
       style="fill:none;stroke:#ffffff;stroke-width:40;stroke-linecap:round;stroke-linejoin:round;stroke-opacity:0.61094093;stroke-miterlimit:4;stroke-dasharray:none"
       d="m 239.90785,440.37273 c -4.05874,-10.65937 0.27589,-23.11434 -2.44781,-34.00912 -0.37909,-1.51635 -0.22803,-6.55484 -0.79732,-7.10607 -0.42161,-0.40825 -1.22382,-0.31694 -1.57477,-0.78732 -1.00518,-1.34723 -0.72982,-3.34256 -1.59463,-4.7839 -0.38676,-0.64458 -1.143,-0.99373 -1.59464,-1.59462 -1.22212,-1.6261 -1.39425,-3.84278 -2.40148,-5.61004 -1.48714,-2.60927 -4.55925,-4.75012 -6.37852,-7.17582 -4.35327,-5.80437 1.0973,1.39727 -2.39195,-5.58122 -1.21826,-2.4365 -4.92062,-2.52868 -6.37852,-3.98659 -0.67759,-0.67757 -0.91705,-1.71434 -1.59463,-2.39194 -1.03096,-1.03095 -6.74887,-4.96906 -7.97316,-5.5812 -0.47542,-0.23773 -1.13883,0.27348 -1.59463,0 -0.96689,-0.58012 -1.42506,-1.81181 -2.39195,-2.39194 -0.45579,-0.27347 -1.07574,0.11531 -1.59463,0 -4.58188,-1.01819 -9.02383,-2.28317 -13.55436,-3.18926 -0.58274,-0.11655 -1.06308,-0.53155 -1.59463,-0.79732 -1.61027,-0.26839 -3.21477,-0.57396 -4.8308,-0.80515 -1.74598,-0.24977 -0.98927,0.99909 -3.98658,0 -0.71314,-0.2377 -0.89668,-1.31546 -1.59463,-1.59465 -3.371,-1.34839 -10.05611,-0.21426 -13.55436,-0.79729 -0.5862,-0.0977 -1.01809,-0.65318 -1.59463,-0.79732 -3.39359,-0.84839 -7.66748,-0.0983 -11.16242,-0.79733 -7.69794,-1.53958 6.53745,-0.0912 -3.98658,-1.59461 -6.64179,-0.94885 -5.29116,0.14502 -11.95973,-3.18926 -3.04427,-1.52215 -6.56996,-1.99808 -9.53761,-3.97651 -0.93521,-0.62349 -1.9648,-2.65533 -2.39195,-3.18926 -2.07354,-2.59193 -6.56329,-5.95077 -7.97315,-8.77048 -2.00852,-4.01704 -3.1158,-8.58682 -4.7839,-12.75705 -0.5271,-1.31776 -3.00332,-3.66826 -3.18926,-4.78388 -0.21846,-1.3108 0.21847,-2.67581 0,-3.98658 -0.15753,-0.94522 -1.2916,-1.48288 -1.59463,-2.39194 -0.34652,-1.03957 -0.23353,-2.24962 -0.79731,-3.18926 -0.30576,-0.50961 -1.264985,-0.30284 -1.594635,-0.79732 -1.104243,-1.65637 0,-6.94785 0,-8.81044 0,-8.29093 0,-16.58189 0,-24.87285"
       id="path1510" />
  </g>
</svg>
